PathFileType	4	(X/Y/Z)	OpenSim_Sub03_EMGStiffKnee_Magnet.trc
DataRate	CameraRate	NumFrames	NumMarkers	Units	OrigDataRate	OrigDataStartFrame	OrigNumFrames
100	100	33	8	m	100	5698	7597
Frame#	Time	torso_imu_offset_imu	pelvis_imu_offset_imu	tibia_r_imu_offset_imu	femur_r_imu_offset_imu	tibia_l_imu_offset_imu	femur_l_imu_offset_imu	toes_r_imu_offset_imu	toes_l_imu_offset_imu
				X1	Y1	Z1	X2	Y2	Z2	X3	Y3	Z3	X4	Y4	Z4	X5	Y5	Z5	X6	Y6	Z6	X7	Y7	Z7	X8		Y8	Z8	

5698	56.97000000	-0.88761638	-0.14401594	0.26079337	-0.67480430	0.08566747	-0.64853295	-0.69397003	-0.33834036	-0.06227780	-0.81787539	-0.12953064	0.12356919	-0.55149011	0.59266875	0.15201244	-0.62603777	0.49574285	0.25479241	-0.67365971	-0.04668755	-0.41091945	-0.76293057	-0.06282800	-0.27443077
5699	56.98000000	-0.88590451	-0.15385275	0.25793171	-0.67267041	0.08836569	-0.65236531	-0.69227961	-0.34798388	-0.04644642	-0.81036519	-0.14432891	0.12001110	-0.54304585	0.60069085	0.15274563	-0.62200577	0.50514267	0.25146927	-0.68202445	-0.06015429	-0.37793535	-0.76732549	-0.06816396	-0.26179092
5700	56.99000000	-0.88620830	-0.15297151	0.25008344	-0.66859324	0.08795893	-0.65714777	-0.68973029	-0.36200885	-0.03123841	-0.80773928	-0.15930980	0.11583001	-0.53253668	0.60723525	0.13976940	-0.62082097	0.51215089	0.24402142	-0.69180527	-0.07165182	-0.37174850	-0.77035549	-0.07263895	-0.24132607
5701	57	-0.89080913	-0.15606864	0.25425771	-0.66000926	0.09440821	-0.65713746	-0.68631285	-0.36465923	-0.02337237	-0.80422618	-0.16674995	0.10824253	-0.52833350	0.61677652	0.13637120	-0.62062590	0.51358995	0.24554611	-0.69099563	-0.08290461	-0.37431942	-0.76996564	-0.07670260	-0.22580225
5702	57.01000000	-0.89132435	-0.15865163	0.25372184	-0.66132647	0.10142833	-0.65946711	-0.67954333	-0.37287704	-0.02528526	-0.80654340	-0.15446236	0.11756505	-0.51904136	0.62393055	0.12805299	-0.61185551	0.52109232	0.24772117	-0.69138357	-0.08376784	-0.37197750	-0.77409025	-0.08368643	-0.20020524
5703	57.02000000	-0.89490053	-0.15837146	0.24947061	-0.66293897	0.10929075	-0.66032575	-0.67736902	-0.38106913	-0.02076445	-0.80852825	-0.14963676	0.12702802	-0.51034844	0.62997047	0.12166561	-0.61541127	0.52698305	0.23324794	-0.69785270	-0.08373358	-0.37140170	-0.78387838	-0.08528174	-0.18547064
5704	57.03000000	-0.89499827	-0.15641066	0.25098881	-0.65479200	0.11548248	-0.66187871	-0.67799727	-0.38663440	-0.02748086	-0.80709478	-0.15261298	0.13474002	-0.50658472	0.63901956	0.13299420	-0.61447906	0.53065005	0.24179600	-0.69198891	-0.08781405	-0.37187674	-0.78548864	-0.08793331	-0.16441468
5705	57.04000000	-0.89167704	-0.15904191	0.25223861	-0.65155499	0.11556711	-0.66487481	-0.67459768	-0.39426875	-0.02419338	-0.80092841	-0.16486453	0.14604849	-0.49922532	0.64260769	0.12842232	-0.61416991	0.52502654	0.25012571	-0.68836251	-0.08988781	-0.36754196	-0.79022818	-0.08052107	-0.13326227
5706	57.05000000	-0.89336733	-0.16109305	0.24949787	-0.65625388	0.12011603	-0.66517266	-0.67065471	-0.40419381	-0.02521505	-0.79892819	-0.17769425	0.14630629	-0.49945671	0.64703455	0.13888067	-0.61400727	0.52673016	0.24918400	-0.69301065	-0.08296806	-0.36085863	-0.79655820	-0.07190013	-0.11293944
5707	57.06000000	-0.89230455	-0.15812027	0.25299791	-0.65460032	0.12517642	-0.66785195	-0.67274730	-0.40351448	-0.02229712	-0.79594623	-0.19596086	0.14990377	-0.48691905	0.64537350	0.14125418	-0.61040156	0.52588195	0.25089792	-0.69262916	-0.08015246	-0.36732098	-0.79863317	-0.06667962	-0.09228392
5708	57.07000000	-0.89161599	-0.16180022	0.25203822	-0.65016233	0.11849700	-0.66513839	-0.66862201	-0.40894236	-0.01724581	-0.79057566	-0.21478334	0.14962199	-0.47954750	0.65281785	0.14828701	-0.61484769	0.51875207	0.25358303	-0.69090502	-0.08083540	-0.36804469	-0.80582277	-0.05560691	-0.07030361
5709	57.08000000	-0.89014889	-0.15951886	0.25675850	-0.65379702	0.11398957	-0.67209250	-0.66346006	-0.41369009	-0.01882034	-0.78721108	-0.22745904	0.14231700	-0.46996073	0.66063953	0.15096823	-0.61991853	0.51496350	0.25274423	-0.69530128	-0.06884202	-0.36975425	-0.80420476	-0.05313880	-0.05748563
5710	57.09000000	-0.88886341	-0.15852350	0.25660059	-0.65175666	0.11399200	-0.67429790	-0.66891604	-0.41500218	-0.02158338	-0.78623184	-0.24295043	0.14149356	-0.46843161	0.65960769	0.15695495	-0.62467812	0.51633233	0.24953001	-0.69513786	-0.05828259	-0.36335266	-0.80200683	-0.05071203	-0.05707622
5711	57.10000000	-0.89171842	-0.15354646	0.25936406	-0.65010766	0.11350929	-0.68092973	-0.66920916	-0.41748924	-0.03356476	-0.77586846	-0.25916570	0.13911732	-0.46876889	0.65685446	0.16166701	-0.62508132	0.51841123	0.25242305	-0.69425425	-0.05107793	-0.36543379	-0.80436706	-0.05858259	-0.06140956
5712	57.11000000	-0.88866416	-0.15260695	0.25799151	-0.64856562	0.10553844	-0.68434966	-0.66800276	-0.41815114	-0.04038886	-0.77473676	-0.27819918	0.13512142	-0.47623004	0.65664666	0.15353819	-0.61855318	0.52254406	0.25572932	-0.69494525	-0.04119260	-0.36997093	-0.80272284	-0.06610151	-0.06598366
5713	57.12000000	-0.88831839	-0.15661772	0.26464701	-0.64797935	0.10432047	-0.68204405	-0.66811712	-0.41766083	-0.04896393	-0.76811078	-0.29122226	0.12932423	-0.48921863	0.65407507	0.15105686	-0.61807708	0.52414539	0.25651405	-0.69379968	-0.03173540	-0.37131781	-0.80170521	-0.07891182	-0.07128010
5714	57.13000000	-0.89217402	-0.15153658	0.26682226	-0.64651674	0.10703954	-0.69084643	-0.66947664	-0.41968940	-0.05988644	-0.75728866	-0.31082200	0.12450944	-0.49369338	0.64593615	0.15103519	-0.62164089	0.52209380	0.25327164	-0.69140212	-0.02699411	-0.37544114	-0.79996895	-0.07939284	-0.08252390
5715	57.14000000	-0.88717388	-0.15069086	0.27167344	-0.64503086	0.09813922	-0.68989125	-0.67159333	-0.41831115	-0.06343932	-0.74960799	-0.33217073	0.12189245	-0.49490787	0.63850145	0.14640059	-0.61768801	0.52103438	0.24919964	-0.69087852	-0.02034014	-0.37856607	-0.79984669	-0.07748646	-0.08750481
5716	57.15000000	-0.88616135	-0.15362272	0.27325359	-0.64840691	0.09248354	-0.68656055	-0.67429634	-0.42038327	-0.06676067	-0.74643922	-0.34415680	0.11250810	-0.51076985	0.63229698	0.14695306	-0.62010335	0.52348593	0.25327646	-0.69168251	-0.01142674	-0.37896305	-0.79552060	-0.08498448	-0.10326805
5717	57.16000000	-0.88967914	-0.15443255	0.27897062	-0.65110087	0.08444699	-0.69102876	-0.67141830	-0.42556488	-0.07257604	-0.74143995	-0.35414846	0.11504071	-0.51944679	0.62493824	0.14023967	-0.62236301	0.52095546	0.25038499	-0.68963467	-0.00597391	-0.37895841	-0.79679679	-0.08269475	-0.12080502
5718	57.17000000	-0.88763863	-0.15215182	0.27771152	-0.65166330	0.08303967	-0.69064725	-0.66805387	-0.42675150	-0.08158849	-0.73525399	-0.36480788	0.11172259	-0.52404270	0.62253313	0.13691970	-0.63041145	0.51606355	0.25302548	-0.69137634	-0.00310539	-0.37872302	-0.79337512	-0.08403980	-0.12751246
5719	57.18000000	-0.89218692	-0.15282516	0.28593070	-0.64956453	0.07514384	-0.68968271	-0.66731597	-0.43612329	-0.08540438	-0.73591544	-0.37354237	0.10967687	-0.53291411	0.61401587	0.14044150	-0.63044768	0.51118970	0.25196414	-0.68957767	0.00620946	-0.38128713	-0.79584042	-0.08664132	-0.14103239
5720	57.19000000	-0.89382215	-0.14575753	0.28745596	-0.64879973	0.07005697	-0.69868336	-0.66719227	-0.43881485	-0.08733606	-0.73567167	-0.38188977	0.10698618	-0.53923872	0.60456004	0.13889836	-0.63428473	0.51098862	0.25762064	-0.69636317	0.01133252	-0.37813510	-0.79307758	-0.08193374	-0.15442941
5721	57.20000000	-0.88684824	-0.14354934	0.28888314	-0.64885844	0.06869874	-0.69917186	-0.66726044	-0.44283689	-0.08705606	-0.72911894	-0.38886729	0.10551493	-0.55029186	0.60454926	0.12996671	-0.63796681	0.50332367	0.25191932	-0.69547944	0.00929717	-0.37874853	-0.78578643	-0.08413888	-0.16343334
5722	57.21000000	-0.88747554	-0.14009834	0.29458303	-0.64923883	0.06640579	-0.69983558	-0.66481082	-0.44823914	-0.08065078	-0.72796516	-0.39321034	0.10637556	-0.55419493	0.59621236	0.12777546	-0.64133483	0.49251072	0.25324881	-0.69549822	0.00975660	-0.37632688	-0.78922951	-0.08554198	-0.17213081
5723	57.22000000	-0.88498271	-0.14107067	0.30579995	-0.64528707	0.06462441	-0.70040445	-0.65640533	-0.45198913	-0.08885497	-0.72343499	-0.39862481	0.10415882	-0.56109927	0.58898065	0.12967554	-0.65492558	0.48902142	0.24953187	-0.69402359	0.00307990	-0.37391905	-0.78771391	-0.08702871	-0.18208463
5724	57.23000000	-0.88480329	-0.13705376	0.30829695	-0.64531117	0.06003047	-0.70314057	-0.65345944	-0.45721854	-0.09075258	-0.72856249	-0.40524932	0.09402362	-0.56659089	0.58622591	0.12499885	-0.65710043	0.48356326	0.24915469	-0.69818485	-0.00087285	-0.36672856	-0.78196615	-0.08748663	-0.18617244
5725	57.24000000	-0.88718333	-0.13339132	0.31128122	-0.64689438	0.05175407	-0.70833522	-0.65473824	-0.46579349	-0.08905166	-0.72065335	-0.41076852	0.09729414	-0.57453942	0.57491639	0.12939843	-0.66601342	0.46801302	0.24736129	-0.70008837	-0.00559886	-0.36380293	-0.78126285	-0.08864768	-0.19998697
5726	57.25000000	-0.87947316	-0.12965187	0.31133726	-0.64307514	0.05701520	-0.71050543	-0.64803354	-0.46927182	-0.08745176	-0.71400233	-0.41995242	0.08804184	-0.57681745	0.56391379	0.12228425	-0.67524690	0.46245433	0.24351049	-0.70234263	-0.01126010	-0.36521216	-0.77814594	-0.09163185	-0.20851929
5727	57.26000000	-0.88002629	-0.12881397	0.32131542	-0.64212647	0.05954381	-0.70562861	-0.64129190	-0.47424720	-0.08633305	-0.71284350	-0.41859028	0.08419218	-0.59102505	0.55819284	0.11915329	-0.68143255	0.45621949	0.24314238	-0.70600418	-0.02258257	-0.35856551	-0.77361864	-0.09006111	-0.22338339
5728	57.27000000	-0.88296408	-0.12499895	0.32956361	-0.63947987	0.05224298	-0.70790114	-0.64145970	-0.48025146	-0.08721825	-0.71101660	-0.41900197	0.07782729	-0.60115133	0.54549871	0.11774197	-0.68546845	0.44790378	0.23298995	-0.70256136	-0.03073018	-0.35308575	-0.76850669	-0.08936167	-0.23741739
5729	57.28000000	-0.87862930	-0.11557600	0.32790939	-0.63305274	0.05401069	-0.70992056	-0.63499322	-0.48979233	-0.08219138	-0.70605021	-0.42695162	0.07486830	-0.60879498	0.54055009	0.11250238	-0.69495926	0.44490622	0.23006321	-0.71208422	-0.03602992	-0.35861781	-0.76784105	-0.08793459	-0.24795281
5730	57.29000000	-0.88132839	-0.11289731	0.32579432	-0.63995277	0.05495435	-0.70912937	-0.63806043	-0.49789801	-0.08503669	-0.70887782	-0.43435862	0.07514517	-0.61674648	0.53377156	0.11144730	-0.70118011	0.42934516	0.22614936	-0.70568449	-0.03371236	-0.35734292	-0.76507924	-0.08641313	-0.26009915
